<svg xmlns="http://www.w3.org/2000/svg" viewBox="0 0 100 100" width="256" height="256">
  <title>Transparent Match — favicon (no background)</title>
  
  <g transform="rotate(-5 50 50)">
    <rect x="16" y="20" width="56" height="64" rx="3" fill="#FAF1DB" stroke="#7390CC" stroke-width="0.6"></rect>
    <rect x="22" y="30" width="38" height="2.4" rx="1" fill="#7390CC" opacity="0.5"></rect>
    <rect x="22" y="36" width="30" height="2.4" rx="1" fill="#7390CC" opacity="0.35"></rect>
    <rect x="22" y="42" width="34" height="2.4" rx="1" fill="#7390CC" opacity="0.35"></rect>
    <rect x="22" y="48" width="26" height="2.4" rx="1" fill="#7390CC" opacity="0.35"></rect>
  </g>
  
  <g transform="rotate(8 50 50)">
    <rect x="28" y="16" width="56" height="64" rx="3" fill="#7390CC"></rect>
    <rect x="34" y="34" width="38" height="2.4" rx="1" fill="#FAF1DB" opacity="0.75"></rect>
    <rect x="34" y="40" width="30" height="2.4" rx="1" fill="#FAF1DB" opacity="0.5"></rect>
    <rect x="34" y="46" width="34" height="2.4" rx="1" fill="#FAF1DB" opacity="0.5"></rect>
  </g>
  
  <g transform="rotate(2 50 22)">
    <path d="M40 12 Q40 6 46 6 L64 6 Q70 6 70 12 L70 34 Q70 38 66 38 Q62 38 62 34 L62 14 Q62 12 60 12 L50 12 Q48 12 48 14 L48 36" fill="none" stroke="#F2C76A" stroke-width="4" stroke-linecap="round"></path>
  </g>
</svg>